<?xml version="1.0" encoding="UTF-8" standalone="no"?>
<!DOCTYPE svg PUBLIC "-//W3C//DTD SVG 1.1//EN"
 "http://www.w3.org/Graphics/SVG/1.1/DTD/svg11.dtd">
<!-- Generated by graphviz version 2.44.0 ()
 -->
<!-- Title: minipb::output_stream Pages: 1 -->
<svg width="252pt" height="95pt"
 viewBox="0.00 0.00 251.50 95.00" xmlns="http://www.w3.org/2000/svg" xmlns:xlink="http://www.w3.org/1999/xlink">
<g id="graph0" class="graph" transform="scale(1 1) rotate(0) translate(4 91)">
<title>minipb::output_stream</title>
<!-- Node1 -->
<g id="node1" class="node">
<title>Node1</title>
<g id="a_node1"><a xlink:title="Base class for an output stream.">
<polygon fill="#bfbfbf" stroke="black" points="60.5,-67.5 60.5,-86.5 172.5,-86.5 172.5,-67.5 60.5,-67.5"/>
<text text-anchor="middle" x="116.5" y="-74.5" font-family="Helvetica,sans-Serif" font-size="10.00">minipb::output_stream</text>
</a>
</g>
</g>
<!-- Node2 -->
<g id="node2" class="node">
<title>Node2</title>
<g id="a_node2"><a xlink:href="classminipb_1_1array__output__stream.html" target="_top" xlink:title="Output stream using a user provided memory block for storage.">
<polygon fill="none" stroke="black" points="0,-0.5 0,-30.5 103,-30.5 103,-0.5 0,-0.5"/>
<text text-anchor="start" x="8" y="-18.5" font-family="Helvetica,sans-Serif" font-size="10.00">minipb::array_output</text>
<text text-anchor="middle" x="51.5" y="-7.5" font-family="Helvetica,sans-Serif" font-size="10.00">_stream</text>
</a>
</g>
</g>
<!-- Node1&#45;&gt;Node2 -->
<g id="edge1" class="edge">
<title>Node1&#45;&gt;Node2</title>
<path fill="none" stroke="midnightblue" d="M99.73,-60.65C89.57,-51.35 76.7,-39.57 66.82,-30.52"/>
<polygon fill="midnightblue" stroke="midnightblue" points="97.45,-63.3 107.19,-67.48 102.17,-58.14 97.45,-63.3"/>
</g>
<!-- Node3 -->
<g id="node3" class="node">
<title>Node3</title>
<g id="a_node3"><a xlink:href="classminipb_1_1container__output__stream.html" target="_top" xlink:title="Container output stream for all containers supporting resize(size_t), size() and non const data().">
<polygon fill="none" stroke="black" points="121.5,-0.5 121.5,-30.5 243.5,-30.5 243.5,-0.5 121.5,-0.5"/>
<text text-anchor="start" x="129.5" y="-18.5" font-family="Helvetica,sans-Serif" font-size="10.00">minipb::container_output</text>
<text text-anchor="middle" x="182.5" y="-7.5" font-family="Helvetica,sans-Serif" font-size="10.00">_stream&lt; T &gt;</text>
</a>
</g>
</g>
<!-- Node1&#45;&gt;Node3 -->
<g id="edge2" class="edge">
<title>Node1&#45;&gt;Node3</title>
<path fill="none" stroke="midnightblue" d="M133.53,-60.65C143.85,-51.35 156.91,-39.57 166.95,-30.52"/>
<polygon fill="midnightblue" stroke="midnightblue" points="131.04,-58.18 125.96,-67.48 135.73,-63.38 131.04,-58.18"/>
</g>
</g>
</svg>
