<?xml version="1.0" encoding="UTF-8" standalone="no"?>
<!DOCTYPE svg PUBLIC "-//W3C//DTD SVG 1.1//EN"
 "http://www.w3.org/Graphics/SVG/1.1/DTD/svg11.dtd">
<!-- Generated by graphviz version 2.44.0 ()
 -->
<!-- Title: Graphical Class Hierarchy Pages: 1 -->
<svg width="266pt" height="137pt"
 viewBox="0.00 0.00 266.00 137.00" xmlns="http://www.w3.org/2000/svg" xmlns:xlink="http://www.w3.org/1999/xlink">
<g id="graph0" class="graph" transform="scale(1 1) rotate(0) translate(4 133)">
<title>Graphical Class Hierarchy</title>
<!-- Node0 -->
<g id="node1" class="node">
<title>Node0</title>
<g id="a_node1"><a xlink:href="classminipb_1_1input__stream.html" target="_top" xlink:title="Base class for an input stream.">
<polygon fill="none" stroke="black" points="0,-55 0,-74 106,-74 106,-55 0,-55"/>
<text text-anchor="middle" x="53" y="-62" font-family="Helvetica,sans-Serif" font-size="10.00">minipb::input_stream</text>
</a>
</g>
</g>
<!-- Node1 -->
<g id="node2" class="node">
<title>Node1</title>
<g id="a_node2"><a xlink:href="classminipb_1_1array__input__stream.html" target="_top" xlink:title="Input stream using a user provided memory block for storage.">
<polygon fill="none" stroke="black" points="151.5,-98.5 151.5,-128.5 248.5,-128.5 248.5,-98.5 151.5,-98.5"/>
<text text-anchor="start" x="159.5" y="-116.5" font-family="Helvetica,sans-Serif" font-size="10.00">minipb::array_input</text>
<text text-anchor="middle" x="200" y="-105.5" font-family="Helvetica,sans-Serif" font-size="10.00">_stream</text>
</a>
</g>
</g>
<!-- Node0&#45;&gt;Node1 -->
<g id="edge1" class="edge">
<title>Node0&#45;&gt;Node1</title>
<path fill="none" stroke="midnightblue" d="M91.91,-77.31C111.08,-83.79 134.48,-91.7 154.5,-98.46"/>
<polygon fill="midnightblue" stroke="midnightblue" points="92.9,-73.95 82.3,-74.06 90.65,-80.58 92.9,-73.95"/>
</g>
<!-- Node2 -->
<g id="node3" class="node">
<title>Node2</title>
<g id="a_node3"><a xlink:href="classminipb_1_1container__input__stream.html" target="_top" xlink:title="Container input stream for all containers supporting size() and data().">
<polygon fill="none" stroke="black" points="142,-49.5 142,-79.5 258,-79.5 258,-49.5 142,-49.5"/>
<text text-anchor="start" x="150" y="-67.5" font-family="Helvetica,sans-Serif" font-size="10.00">minipb::container_input</text>
<text text-anchor="middle" x="200" y="-56.5" font-family="Helvetica,sans-Serif" font-size="10.00">_stream</text>
</a>
</g>
</g>
<!-- Node0&#45;&gt;Node2 -->
<g id="edge2" class="edge">
<title>Node0&#45;&gt;Node2</title>
<path fill="none" stroke="midnightblue" d="M116.49,-64.5C124.91,-64.5 133.51,-64.5 141.82,-64.5"/>
<polygon fill="midnightblue" stroke="midnightblue" points="116.35,-61 106.35,-64.5 116.35,-68 116.35,-61"/>
</g>
<!-- Node3 -->
<g id="node4" class="node">
<title>Node3</title>
<g id="a_node4"><a xlink:href="classminipb_1_1subset__input__stream.html" target="_top" xlink:title="Container input stream that wraps a subset of a different input stream.">
<polygon fill="none" stroke="black" points="147.5,-0.5 147.5,-30.5 252.5,-30.5 252.5,-0.5 147.5,-0.5"/>
<text text-anchor="start" x="155.5" y="-18.5" font-family="Helvetica,sans-Serif" font-size="10.00">minipb::subset_input</text>
<text text-anchor="middle" x="200" y="-7.5" font-family="Helvetica,sans-Serif" font-size="10.00">_stream</text>
</a>
</g>
</g>
<!-- Node0&#45;&gt;Node3 -->
<g id="edge3" class="edge">
<title>Node0&#45;&gt;Node3</title>
<path fill="none" stroke="midnightblue" d="M91.91,-51.69C111.08,-45.21 134.48,-37.3 154.5,-30.54"/>
<polygon fill="midnightblue" stroke="midnightblue" points="90.65,-48.42 82.3,-54.94 92.9,-55.05 90.65,-48.42"/>
</g>
</g>
</svg>
