<?xml version="1.0" encoding="UTF-8" standalone="no"?>
<!DOCTYPE svg PUBLIC "-//W3C//DTD SVG 1.1//EN"
 "http://www.w3.org/Graphics/SVG/1.1/DTD/svg11.dtd">
<!-- Generated by graphviz version 2.44.0 ()
 -->
<!-- Title: Graphical Class Hierarchy Pages: 1 -->
<svg width="278pt" height="88pt"
 viewBox="0.00 0.00 278.00 88.00" xmlns="http://www.w3.org/2000/svg" xmlns:xlink="http://www.w3.org/1999/xlink">
<g id="graph0" class="graph" transform="scale(1 1) rotate(0) translate(4 84)">
<title>Graphical Class Hierarchy</title>
<!-- Node0 -->
<g id="node1" class="node">
<title>Node0</title>
<g id="a_node1"><a xlink:href="classminipb_1_1output__stream.html" target="_top" xlink:title="Base class for an output stream.">
<polygon fill="none" stroke="black" points="0,-30 0,-49 112,-49 112,-30 0,-30"/>
<text text-anchor="middle" x="56" y="-37" font-family="Helvetica,sans-Serif" font-size="10.00">minipb::output_stream</text>
</a>
</g>
</g>
<!-- Node1 -->
<g id="node2" class="node">
<title>Node1</title>
<g id="a_node2"><a xlink:href="classminipb_1_1array__output__stream.html" target="_top" xlink:title="Output stream using a user provided memory block for storage.">
<polygon fill="none" stroke="black" points="157.5,-49.5 157.5,-79.5 260.5,-79.5 260.5,-49.5 157.5,-49.5"/>
<text text-anchor="start" x="165.5" y="-67.5" font-family="Helvetica,sans-Serif" font-size="10.00">minipb::array_output</text>
<text text-anchor="middle" x="209" y="-56.5" font-family="Helvetica,sans-Serif" font-size="10.00">_stream</text>
</a>
</g>
</g>
<!-- Node0&#45;&gt;Node1 -->
<g id="edge1" class="edge">
<title>Node0&#45;&gt;Node1</title>
<path fill="none" stroke="midnightblue" d="M122.46,-50.34C134.08,-52.26 146.01,-54.24 157.14,-56.08"/>
<polygon fill="midnightblue" stroke="midnightblue" points="122.81,-46.85 112.37,-48.67 121.66,-53.75 122.81,-46.85"/>
</g>
<!-- Node2 -->
<g id="node3" class="node">
<title>Node2</title>
<g id="a_node3"><a xlink:href="classminipb_1_1container__output__stream.html" target="_top" xlink:title="Container output stream for all containers supporting resize(size_t), size() and non const data().">
<polygon fill="none" stroke="black" points="148,-0.5 148,-30.5 270,-30.5 270,-0.5 148,-0.5"/>
<text text-anchor="start" x="156" y="-18.5" font-family="Helvetica,sans-Serif" font-size="10.00">minipb::container_output</text>
<text text-anchor="middle" x="209" y="-7.5" font-family="Helvetica,sans-Serif" font-size="10.00">_stream&lt; T &gt;</text>
</a>
</g>
</g>
<!-- Node0&#45;&gt;Node2 -->
<g id="edge2" class="edge">
<title>Node0&#45;&gt;Node2</title>
<path fill="none" stroke="midnightblue" d="M122.51,-29.09C130.92,-27.75 139.49,-26.39 147.8,-25.07"/>
<polygon fill="midnightblue" stroke="midnightblue" points="121.7,-25.67 112.37,-30.7 122.79,-32.59 121.7,-25.67"/>
</g>
</g>
</svg>
